HIERARCHY
ROOT Haolin_28_06:Solving:Hips
{
	OFFSET 0.000000 0.000000 0.000000
	CHANNELS 6 Xposition Yposition Zposition Xrotation Yrotation Zrotation
	JOINT Haolin_28_06:Solving:Spine
	{
		OFFSET 0.000000 -12.181966 2.015561
		CHANNELS 6 Xposition Yposition Zposition Xrotation Yrotation Zrotation
		JOINT Haolin_28_06:Solving:Spine1
		{
			OFFSET 0.000000 -8.890296 1.567602
			CHANNELS 6 Xposition Yposition Zposition Xrotation Yrotation Zrotation
			JOINT Haolin_28_06:Solving:Spine2
			{
				OFFSET 0.000000 -8.993092 0.786796
				CHANNELS 6 Xposition Yposition Zposition Xrotation Yrotation Zrotation
				JOINT Haolin_28_06:Solving:Spine3
				{
					OFFSET 0.000000 -9.027443 0.000000
					CHANNELS 6 Xposition Yposition Zposition Xrotation Yrotation Zrotation
					JOINT Haolin_28_06:Solving:Neck
					{
						OFFSET 0.000000 -11.606712 -1.160669
						CHANNELS 6 Xposition Yposition Zposition Xrotation Yrotation Zrotation
						JOINT Haolin_28_06:Solving:Neck1
						{
							OFFSET 0.000000 -7.471592 -0.653680
							CHANNELS 6 Xposition Yposition Zposition Xrotation Yrotation Zrotation
							JOINT Haolin_28_06:Solving:Head
							{
								OFFSET 0.000000 -7.386181 -1.302382
								CHANNELS 6 Xposition Yposition Zposition Xrotation Yrotation Zrotation
								JOINT Haolin_28_06:Solving:HeadEnd
								{
									OFFSET 0.000000 -9.728081 0.000002
									CHANNELS 6 Xposition Yposition Zposition Xrotation Yrotation Zrotation
									End Site
									{
										OFFSET 0.000000 -9.728081 0.000002
									}
								}
							}
						}
					}
					JOINT Haolin_28_06:Solving:RightShoulder
					{
						OFFSET 0.000000 -8.290508 -5.270916
						CHANNELS 6 Xposition Yposition Zposition Xrotation Yrotation Zrotation
						JOINT Haolin_28_06:Solving:RightArm
						{
							OFFSET -19.261074 -0.000008 0.000000
							CHANNELS 6 Xposition Yposition Zposition Xrotation Yrotation Zrotation
							JOINT Haolin_28_06:Solving:RightForeArm
							{
								OFFSET -30.691700 -0.000011 0.000000
								CHANNELS 6 Xposition Yposition Zposition Xrotation Yrotation Zrotation
								JOINT Haolin_28_06:Solving:RightHand
								{
									OFFSET -20.216934 -0.000008 0.000000
									CHANNELS 6 Xposition Yposition Zposition Xrotation Yrotation Zrotation
									JOINT Haolin_28_06:Solving:RightHandThumb1
									{
										OFFSET -4.948814 2.881329 -3.679893
										CHANNELS 6 Xposition Yposition Zposition Xrotation Yrotation Zrotation
										End Site
										{
											OFFSET -7.039886 -0.000004 -7.104978
										}
									}
									JOINT Haolin_28_06:Solving:RightHandMiddle1
									{
										OFFSET -13.196846 -0.000004 0.084595
										CHANNELS 6 Xposition Yposition Zposition Xrotation Yrotation Zrotation
										End Site
										{
											OFFSET -10.002037 -0.000004 0.000000
										}
									}
								}
							}
						}
					}
					JOINT Haolin_28_06:Solving:LeftShoulder
					{
						OFFSET 0.000000 -8.290508 -5.270916
						CHANNELS 6 Xposition Yposition Zposition Xrotation Yrotation Zrotation
						JOINT Haolin_28_06:Solving:LeftArm
						{
							OFFSET 19.261074 -0.000008 0.000000
							CHANNELS 6 Xposition Yposition Zposition Xrotation Yrotation Zrotation
							JOINT Haolin_28_06:Solving:LeftForeArm
							{
								OFFSET 30.691700 -0.000011 0.000000
								CHANNELS 6 Xposition Yposition Zposition Xrotation Yrotation Zrotation
								JOINT Haolin_28_06:Solving:LeftHand
								{
									OFFSET 20.216934 -0.000008 0.000000
									CHANNELS 6 Xposition Yposition Zposition Xrotation Yrotation Zrotation
									JOINT Haolin_28_06:Solving:LeftHandThumb1
									{
										OFFSET 4.948814 2.881329 -3.679893
										CHANNELS 6 Xposition Yposition Zposition Xrotation Yrotation Zrotation
										End Site
										{
											OFFSET 7.039886 -0.000004 -7.104978
										}
									}
									JOINT Haolin_28_06:Solving:LeftHandMiddle1
									{
										OFFSET 13.196846 -0.000004 0.084595
										CHANNELS 6 Xposition Yposition Zposition Xrotation Yrotation Zrotation
										End Site
										{
											OFFSET 10.002037 -0.000004 0.000000
										}
									}
								}
							}
						}
					}
				}
			}
		}
	}
	JOINT Haolin_28_06:Solving:RightUpLeg
	{
		OFFSET -10.083070 0.000000 0.000000
		CHANNELS 6 Xposition Yposition Zposition Xrotation Yrotation Zrotation
		JOINT Haolin_28_06:Solving:RightLeg
		{
			OFFSET 0.000000 47.042522 -0.000008
			CHANNELS 6 Xposition Yposition Zposition Xrotation Yrotation Zrotation
			JOINT Haolin_28_06:Solving:RightFoot
			{
				OFFSET 0.000000 38.766415 -0.000006
				CHANNELS 6 Xposition Yposition Zposition Xrotation Yrotation Zrotation
				JOINT Haolin_28_06:Solving:RightForeFoot
				{
					OFFSET 0.000000 3.531212 -0.000000
					CHANNELS 6 Xposition Yposition Zposition Xrotation Yrotation Zrotation
					JOINT Haolin_28_06:Solving:RightToeBase
					{
						OFFSET 0.000000 0.000000 -13.829352
						CHANNELS 6 Xposition Yposition Zposition Xrotation Yrotation Zrotation
						JOINT Haolin_28_06:Solving:RightToeBaseEnd
						{
							OFFSET 0.000000 0.000000 -4.034167
							CHANNELS 6 Xposition Yposition Zposition Xrotation Yrotation Zrotation
							End Site
							{
								OFFSET 0.000000 -4.034164 0.000004
							}
						}
					}
				}
			}
		}
	}
	JOINT Haolin_28_06:Solving:LeftUpLeg
	{
		OFFSET 10.083070 0.000000 0.000000
		CHANNELS 6 Xposition Yposition Zposition Xrotation Yrotation Zrotation
		JOINT Haolin_28_06:Solving:LeftLeg
		{
			OFFSET 0.000000 47.042522 -0.000008
			CHANNELS 6 Xposition Yposition Zposition Xrotation Yrotation Zrotation
			JOINT Haolin_28_06:Solving:LeftFoot
			{
				OFFSET 0.000000 38.766415 -0.000006
				CHANNELS 6 Xposition Yposition Zposition Xrotation Yrotation Zrotation
				JOINT Haolin_28_06:Solving:LeftForeFoot
				{
					OFFSET 0.000000 3.531212 -0.000000
					CHANNELS 6 Xposition Yposition Zposition Xrotation Yrotation Zrotation
					JOINT Haolin_28_06:Solving:LeftToeBase
					{
						OFFSET 0.000000 0.000000 -13.829352
						CHANNELS 6 Xposition Yposition Zposition Xrotation Yrotation Zrotation
						JOINT Haolin_28_06:Solving:LeftToeBaseEnd
						{
							OFFSET 0.000000 0.000000 -4.855067
							CHANNELS 6 Xposition Yposition Zposition Xrotation Yrotation Zrotation
							End Site
							{
								OFFSET 0.000000 -4.855064 0.000004
							}
						}
					}
				}
			}
		}
	}
}
MOTION
Frames: 4
Frame Time: 0.041667
30.016245 -125.236526 -94.136314 81.082501 4.148509 -3.447684 -0.000001 -12.181984 2.015532 16.879423 0.428284 2.444415 -0.000002 -8.890285 1.567572 0.254355 -0.142312 -0.141199 0.000004 -8.993073 0.786803 -0.407225 -3.227587 0.839008 -0.000003 -9.027426 0.000010 2.483799 -1.423154 2.955482 0.000002 -11.606690 -1.160700 -4.168760 1.758912 -0.250928 0.000003 -7.471595 -0.653674 0.527934 2.551556 -1.383238 0.000000 -7.386206 -1.302357 7.301290 0.381005 -2.293890 -0.000003 -9.728096 0.000029 0.000000 -0.000000 -0.000000 -0.000001 -8.290485 -5.270934 -0.000006 20.244281 9.710126 -19.261076 0.000007 -0.000033 -21.145646 -59.499841 -98.700926 -30.691710 -0.000008 0.000006 -7.342243 -19.706301 -2.487873 -20.216906 -0.000030 -0.000003 1.960283 -11.316039 9.894535 -4.948794 2.881324 -3.679881 0.000002 -0.000005 0.000006 -13.196818 -0.000003 0.084595 0.000003 -0.000006 0.000006 -0.000000 -8.290485 -5.270934 -0.000005 -14.544575 -8.175455 19.261078 -0.000028 -0.000001 -8.955986 31.015735 87.560081 30.691696 -0.000006 0.000000 -6.205052 12.003330 1.295304 20.216930 0.000004 -0.000007 -0.095315 -0.594897 -9.102375 4.948789 2.881320 -3.679869 0.000000 -0.000005 -0.000004 13.196841 -0.000008 0.084619 0.000002 0.000001 -0.000006 -10.083072 -0.000017 -0.000015 4.248577 13.886879 12.932919 -0.000001 47.042515 -0.000006 12.257389 -0.000002 -0.000002 0.000001 38.766430 0.000002 0.541766 4.721545 4.660554 0.000001 3.531212 0.000015 0.000001 0.000001 -0.000001 0.000012 -0.000001 -13.829372 2.057804 0.000001 -0.000001 0.000004 0.000006 -4.034172 -0.000003 0.000004 -0.000001 10.083069 -0.000007 0.000005 12.787082 -9.602904 6.537481 -0.000002 47.042522 0.000013 7.280384 -0.000001 0.000000 -0.000016 38.766441 0.000015 -1.294103 -2.310677 1.819376 -0.000007 3.531204 -0.000019 -0.000001 -0.000001 0.000001 -0.000006 -0.000003 -13.829355 0.034000 0.000001 -0.000000 0.000007 -0.000008 -4.855074 0.000000 0.000001 -0.000001 
30.141531 -125.174263 -94.108887 81.018768 4.182862 -3.433432 -0.000000 -12.181951 2.015556 16.946294 0.469337 2.481877 0.000001 -8.890304 1.567625 0.287331 -0.146231 -0.123569 0.000001 -8.993101 0.786805 -0.383209 -3.233552 0.864931 -0.000001 -9.027424 -0.000021 2.525246 -1.431601 3.000899 -0.000000 -11.606703 -1.160642 -4.110402 1.815712 -0.261620 0.000003 -7.471584 -0.653633 0.551624 2.643915 -1.358443 0.000002 -7.386176 -1.302398 7.326302 0.387700 -2.302375 0.000002 -9.728096 -0.000020 -0.000001 -0.000001 0.000000 -0.000003 -8.290520 -5.270884 -0.000010 20.227860 9.674448 -19.261078 -0.000030 -0.000029 -21.594449 -60.323589 -98.857262 -30.691704 0.000003 -0.000020 -7.028123 -20.400028 -2.460658 -20.216919 -0.000001 0.000005 2.024315 -11.350828 10.181064 -4.948783 2.881316 -3.679892 0.000006 0.000003 0.000001 -13.196845 -0.000005 0.084589 -0.000005 0.000000 0.000001 -0.000000 -8.290516 -5.270884 -0.000010 -14.507334 -8.071200 19.261078 -0.000024 -0.000007 -8.896817 31.766530 87.561495 30.691702 -0.000018 0.000019 -5.432551 12.252465 1.156206 20.216915 -0.000016 0.000016 -0.086491 -0.545993 -9.001616 4.948780 2.881321 -3.679888 0.000001 -0.000005 -0.000006 13.196823 0.000001 0.084590 0.000001 -0.000003 -0.000000 -10.083065 0.000011 -0.000006 3.848273 13.428681 13.050135 0.000012 47.042507 -0.000005 13.372898 -0.000002 -0.000001 0.000011 38.766415 -0.000014 0.324806 5.131156 4.766702 0.000008 3.531220 0.000003 -0.000001 0.000002 -0.000001 0.000005 -0.000000 -13.829353 1.677189 -0.000000 -0.000004 0.000002 0.000015 -4.034178 -0.000002 0.000004 -0.000002 10.083066 0.000008 0.000002 12.901409 -9.638234 6.614426 -0.000004 47.042530 -0.000013 7.295212 -0.000002 -0.000001 -0.000006 38.766422 0.000020 -1.397268 -2.291139 1.838098 0.000015 3.531212 -0.000016 -0.000001 -0.000001 0.000000 0.000003 -0.000002 -13.829354 0.066844 0.000000 0.000001 0.000008 -0.000015 -4.855062 0.000002 0.000000 -0.000000 
30.274374 -125.094887 -94.090782 80.903782 4.206022 -3.416717 -0.000001 -12.181985 2.015574 17.040065 0.533566 2.485096 -0.000001 -8.890303 1.567584 0.328433 -0.148341 -0.093670 -0.000004 -8.993105 0.786754 -0.348545 -3.253328 0.894113 -0.000000 -9.027448 -0.000026 2.563176 -1.441679 3.050789 0.000002 -11.606725 -1.160666 -4.047810 1.865131 -0.255974 0.000001 -7.471611 -0.653703 0.585411 2.732955 -1.350337 -0.000003 -7.386204 -1.302355 7.365591 0.390888 -2.284746 -0.000002 -9.728081 0.000020 -0.000001 -0.000000 0.000000 0.000003 -8.290485 -5.270945 -0.000004 20.222194 9.634735 -19.261078 0.000002 0.000005 -22.041989 -61.112517 -98.975028 -30.691700 0.000012 -0.000006 -6.838181 -21.049794 -2.466340 -20.216904 -0.000024 0.000006 2.084787 -11.385392 10.448170 -4.948831 2.881343 -3.679878 0.000002 0.000005 -0.000001 -13.196884 0.000004 0.084603 0.000009 0.000003 -0.000000 0.000004 -8.290485 -5.270945 -0.000002 -14.480443 -7.940341 19.261072 -0.000026 0.000005 -8.809651 32.604137 87.498261 30.691694 -0.000005 0.000033 -4.757806 12.537349 1.035073 20.216932 -0.000010 0.000000 -0.075455 -0.477694 -8.976054 4.948787 2.881325 -3.679882 -0.000002 -0.000002 -0.000006 13.196836 -0.000008 0.084595 0.000002 0.000005 -0.000002 -10.083073 -0.000019 0.000016 3.473257 12.813766 13.118625 -0.000008 47.042511 -0.000007 14.603960 -0.000001 -0.000001 0.000001 38.766415 0.000009 0.213713 5.934369 4.923208 0.000012 3.531212 0.000007 -0.000002 -0.000002 -0.000002 -0.000005 0.000007 -13.829332 1.084663 -0.000002 -0.000000 0.000004 0.000008 -4.034171 -0.000000 0.000002 -0.000002 10.083065 -0.000014 0.000009 13.088495 -9.640908 6.696384 -0.000009 47.042530 -0.000004 7.279905 0.000000 -0.000001 -0.000003 38.766418 0.000014 -1.463710 -2.271309 1.820103 0.000007 3.531204 -0.000014 -0.000000 -0.000001 -0.000000 0.000003 0.000002 -13.829359 0.087249 -0.000001 -0.000001 0.000005 -0.000000 -4.855071 -0.000000 0.000000 -0.000001 
30.375202 -125.029976 -94.073532 80.824449 4.225180 -3.354499 -0.000002 -12.181961 2.015570 17.099585 0.559588 2.474015 0.000005 -8.890297 1.567631 0.366461 -0.152219 -0.076389 0.000001 -8.993098 0.786773 -0.313793 -3.250847 0.925584 -0.000005 -9.027467 -0.000003 2.588865 -1.442013 3.083808 -0.000003 -11.606724 -1.160631 -4.008951 1.914141 -0.252193 0.000004 -7.471584 -0.653712 0.674323 2.826214 -1.329687 -0.000002 -7.386200 -1.302401 7.430816 0.389804 -2.255542 0.000004 -9.728081 0.000038 0.000001 0.000001 -0.000000 -0.000001 -8.290497 -5.270881 -0.000010 20.210091 9.584303 -19.261076 -0.000016 -0.000020 -22.513075 -61.838327 -99.095123 -30.691675 -0.000016 -0.000004 -6.650168 -21.616615 -2.459429 -20.216925 -0.000002 0.000011 2.143055 -11.438584 10.685612 -4.948774 2.881322 -3.679904 0.000003 0.000007 0.000003 -13.196832 0.000004 0.084582 -0.000001 0.000007 -0.000001 -0.000002 -8.290497 -5.270881 -0.000007 -14.429246 -7.804419 19.261074 -0.000024 0.000008 -8.723098 33.292613 87.378248 30.691689 -0.000011 0.000009 -4.021224 12.788514 0.891507 20.216938 -0.000007 0.000000 -0.061046 -0.388619 -8.927236 4.948812 2.881328 -3.679872 0.000001 -0.000002 -0.000004 13.196849 -0.000009 0.084589 -0.000000 0.000001 -0.000005 -10.083069 0.000009 -0.000013 3.092147 12.456465 13.142664 -0.000002 47.042538 0.000025 15.672993 0.000001 -0.000003 0.000007 38.766415 0.000001 0.160413 6.444986 4.953610 -0.000003 3.531219 0.000028 0.000001 0.000001 0.000001 -0.000001 0.000012 -13.829334 0.589189 -0.000003 -0.000001 0.000002 -0.000000 -4.034205 0.000001 0.000001 0.000001 10.083066 0.000006 0.000008 13.204302 -9.601821 6.708638 -0.000007 47.042534 0.000015 7.297999 -0.000000 -0.000001 -0.000019 38.766418 -0.000003 -1.594440 -2.328521 1.885771 0.000001 3.531204 -0.000017 0.000001 -0.000000 -0.000001 0.000006 0.000011 -13.829359 0.203103 -0.000001 0.000000 -0.000003 0.000015 -4.855050 -0.000000 -0.000000 -0.000000 
